<?xml version="1.0" encoding="UTF-8"?>
<svg width="338px" height="513px" viewBox="0 0 338 513" version="1.1" xmlns="http://www.w3.org/2000/svg" xmlns:xlink="http://www.w3.org/1999/xlink">
    <!-- Generator: Sketch 40.2 (33826) - http://www.bohemiancoding.com/sketch -->
    <title>lightbulb</title>
    <desc>Created with Sketch.</desc>
    <defs></defs>
    <g id="Page-1" stroke="none" stroke-width="1" fill="none" fill-rule="evenodd">
        <g id="lightbulb" transform="translate(1.000000, 1.000000)">
            <path d="M334.935549,152.717 C326.103547,73.269 262.508528,9.71 183.015504,0.883 C177.715503,0.883 173.300002,0 168,0 C162.699998,0 158.284497,0 152.984496,0.883 C73.4914723,9.71 9.89645335,74.152 1.06445109,152.717 C-5.11905112,209.214 16.078955,260.414 53.175966,295.724 C74.3749727,316.028 92.0399778,342.51 97.338979,370.759 L238.661021,370.759 C243.960022,342.51 261.625027,316.028 282.824034,295.724 C319.921045,260.414 341.119051,209.214 334.935549,152.717" id="bulb-color" stroke="#E8EDEA" fill="#F6F6F6"></path>
            <path d="M181.146,512 L154.664,512 C146.719,512 138.774,508.469 133.477,501.407 L114.939,476.69 L220.871,476.69 L202.333,501.407 C197.036,508.469 189.091,512 181.146,512" id="fill-6" fill="#C8D0CE"></path>
            <polygon id="fill-5" fill="#E8EDEA" points="97.284 476.69 238.526 476.69 238.526 370.759 97.284 370.759"></polygon>
            <path d="M159.077,414.897 C164.374,414.897 167.905,411.366 167.905,406.069 C167.905,400.772 164.374,397.241 159.077,397.241 L97.284,397.241 L97.284,414.897 L159.077,414.897" id="fill-4" fill="#C8D0CE"></path>
            <path d="M132.595,450.207 C137.891,450.207 141.422,446.676 141.422,441.379 C141.422,436.083 137.891,432.552 132.595,432.552 L97.284,432.552 L97.284,450.207 L132.595,450.207" id="fill-3" fill="#C8D0CE"></path>
            <path d="M238.526,397.241 L203.215,397.241 C197.919,397.241 194.388,400.772 194.388,406.069 C194.388,411.366 197.919,414.897 203.215,414.897 L238.526,414.897 L238.526,397.241" id="fill-2" fill="#C8D0CE"></path>
            <path d="M176.733,432.552 C171.436,432.552 167.905,436.083 167.905,441.379 C167.905,446.676 171.436,450.207 176.733,450.207 L238.526,450.207 L238.526,432.552 L176.733,432.552" id="fill-1" fill="#C8D0CE"></path>
        </g>
    </g>
</svg>